<svg width="32" height="32" viewBox="0 0 32 32" fill="none" xmlns="http://www.w3.org/2000/svg">
<g clip-path="url(#clip0_1_1760)">
<path d="M7.11875 9.9125C5.59375 9.9125 4.3625 8.68125 4.3625 7.1625C4.3625 5.64375 5.59375 4.4125 7.11875 4.4125C8.6375 4.4125 9.86875 5.64375 9.86875 7.1625C9.86875 8.675 8.6375 9.9125 7.11875 9.9125Z" fill="#191717"/>
<path d="M9.49375 27.2687H4.74375V11.9937H9.49375V27.2687Z" fill="#191717"/>
<path d="M27.2687 27.2687H22.525V19.8438C22.525 18.075 22.4937 15.7937 20.0562 15.7937C17.5875 15.7937 17.2125 17.725 17.2125 19.7188V27.2687H12.475V11.9937H17.025V14.0813H17.0875C17.7188 12.8813 19.2688 11.6125 21.575 11.6125C26.3813 11.6125 27.2687 14.775 27.2687 18.8875V27.2687Z" fill="#191717"/>
</g>
<defs>
<clipPath id="clip0_1_1760">
<rect width="32" height="32" fill="white"/>
</clipPath>
</defs>
</svg>
